<svg width="22" height="26" viewBox="0 0 22 26" fill="none" xmlns="http://www.w3.org/2000/svg">
    <path d="M18.2498 17.6631C18.0026 17.5102 17.9262 17.1859 18.0791 16.9387C18.232 16.6915 18.5564 16.615 18.8036 16.7679C18.8939 16.8238 18.9686 16.8577 19.0247 16.8721C20.1791 17.1686 21 18.2128 21 19.4211C21 20.8744 19.8218 22.0526 18.3684 22.0526H3.63158C2.1782 22.0526 1 20.8744 1 19.4211C1 18.211 1.82337 17.1656 2.98013 16.8709C3.03559 16.8567 3.11075 16.8229 3.20224 16.7668C3.45007 16.6149 3.77411 16.6927 3.92601 16.9405C4.07791 17.1883 4.00014 17.5124 3.75231 17.6643C3.57659 17.772 3.40696 17.8484 3.24007 17.8909C2.54693 18.0675 2.05263 18.6951 2.05263 19.4211C2.05263 20.2931 2.75955 21 3.63158 21H18.3684C19.2404 21 19.9474 20.2931 19.9474 19.4211C19.9474 18.6962 19.4545 18.0693 18.7628 17.8916C18.5949 17.8485 18.425 17.7715 18.2498 17.6631ZM19.0483 17.2102C19.0483 17.5009 18.8127 17.7365 18.522 17.7365C18.2313 17.7365 17.9957 17.5009 17.9957 17.2102V10.581C17.9957 7.42596 15.6516 4.71278 12.4294 4.07343C12.1443 4.01685 11.959 3.73986 12.0156 3.45474C12.0722 3.16962 12.3492 2.98435 12.6343 3.04092C16.3388 3.77598 19.0483 6.91218 19.0483 10.581V17.2102ZM9.34583 3.04622C9.63064 2.9881 9.90864 3.17185 9.96677 3.45666C10.0249 3.74146 9.84114 4.01946 9.55633 4.07759C9.5091 4.08731 9.5091 4.08731 9.46085 4.09754C6.28952 4.77371 4.00432 7.46072 4.00432 10.581V17.2102C4.00432 17.5009 3.76868 17.7365 3.47801 17.7365C3.18733 17.7365 2.95169 17.5009 2.95169 17.2102V10.581C2.95169 6.95292 5.59431 3.84565 9.24134 3.06805C9.29369 3.05696 9.29369 3.05696 9.34583 3.04622ZM7.31579 21.5263C7.31579 21.2356 7.55143 21 7.84211 21C8.13278 21 8.36842 21.2356 8.36842 21.5263C8.36842 22.9797 9.54662 24.1579 11 24.1579C12.4534 24.1579 13.6316 22.9797 13.6316 21.5263C13.6316 21.2356 13.8672 21 14.1579 21C14.4486 21 14.6842 21.2356 14.6842 21.5263C14.6842 23.561 13.0347 25.2105 11 25.2105C8.96527 25.2105 7.31579 23.561 7.31579 21.5263ZM9.97962 3.55703C9.97962 3.84771 9.74398 4.08335 9.45331 4.08335C9.16263 4.08335 8.92699 3.84771 8.92699 3.55703V3.14791C8.92699 1.9657 9.84152 1 10.9931 1C12.1396 1 13.0591 1.9696 13.0591 3.14791V3.55703C13.0591 3.84771 12.8235 4.08335 12.5328 4.08335C12.2421 4.08335 12.0065 3.84771 12.0065 3.55703V3.14791C12.0065 2.53884 11.5454 2.05263 10.9931 2.05263C10.4361 2.05263 9.97962 2.53463 9.97962 3.14791V3.55703Z" fill="white" stroke="white" stroke-width="0.5"/>
</svg>